<?xml version="1.0" encoding="utf-8"?>
<!-- Generator: Adobe Illustrator 17.0.0, SVG Export Plug-In . SVG Version: 6.00 Build 0)  -->
<!DOCTYPE svg PUBLIC "-//W3C//DTD SVG 1.1//EN" "http://www.w3.org/Graphics/SVG/1.1/DTD/svg11.dtd">
<svg version="1.1" id="Layer_1" xmlns="http://www.w3.org/2000/svg" xmlns:xlink="http://www.w3.org/1999/xlink" x="0px" y="0px"
	 width="150px" height="50px" viewBox="0 0 150 50" enable-background="new 0 0 150 50" xml:space="preserve">
<g>
	<path fill="#04897B" d="M11.141,28.16c0.117,0,0.219,0.045,0.304,0.136l0.848,0.92c-0.469,0.581-1.047,1.026-1.732,1.336
		c-0.686,0.31-1.508,0.464-2.468,0.464c-0.858,0-1.63-0.146-2.316-0.439c-0.685-0.294-1.271-0.701-1.756-1.225
		c-0.485-0.522-0.857-1.146-1.116-1.872c-0.258-0.726-0.388-1.517-0.388-2.376c0-0.869,0.144-1.665,0.432-2.388
		c0.288-0.723,0.693-1.345,1.216-1.868c0.522-0.522,1.148-0.929,1.876-1.22c0.728-0.291,1.532-0.436,2.412-0.436
		c0.858,0,1.609,0.137,2.252,0.412c0.643,0.275,1.193,0.639,1.652,1.092l-0.72,1c-0.043,0.064-0.098,0.12-0.164,0.168
		c-0.067,0.048-0.159,0.072-0.276,0.072c-0.123,0-0.248-0.048-0.376-0.144c-0.128-0.096-0.291-0.2-0.488-0.312
		c-0.197-0.112-0.447-0.216-0.748-0.312c-0.301-0.096-0.684-0.144-1.148-0.144c-0.544,0-1.044,0.095-1.5,0.284
		c-0.456,0.189-0.848,0.46-1.176,0.812c-0.328,0.352-0.584,0.78-0.768,1.284c-0.184,0.504-0.276,1.071-0.276,1.7
		c0,0.65,0.092,1.229,0.276,1.736c0.184,0.507,0.433,0.934,0.748,1.279c0.314,0.348,0.685,0.613,1.112,0.797
		s0.885,0.275,1.376,0.275c0.293,0,0.559-0.016,0.796-0.048s0.456-0.083,0.656-0.151c0.2-0.07,0.389-0.159,0.568-0.269
		s0.356-0.244,0.532-0.403c0.054-0.049,0.109-0.088,0.168-0.117C11.007,28.174,11.071,28.16,11.141,28.16z"/>
	<path fill="#04897B" d="M25.012,25.104c0,0.848-0.142,1.634-0.424,2.355c-0.283,0.724-0.68,1.349-1.192,1.877
		c-0.512,0.527-1.128,0.939-1.848,1.236c-0.72,0.295-1.517,0.443-2.392,0.443c-0.875,0-1.673-0.148-2.396-0.443
		c-0.723-0.297-1.342-0.709-1.856-1.236c-0.515-0.528-0.913-1.153-1.196-1.877c-0.283-0.722-0.424-1.508-0.424-2.355
		s0.141-1.633,0.424-2.356s0.681-1.348,1.196-1.876c0.515-0.528,1.133-0.94,1.856-1.236c0.723-0.296,1.521-0.444,2.396-0.444
		c0.875,0,1.672,0.149,2.392,0.448c0.72,0.299,1.336,0.711,1.848,1.236c0.512,0.525,0.909,1.149,1.192,1.872
		S25.012,24.256,25.012,25.104z M22.804,25.104c0-0.634-0.084-1.204-0.252-1.708c-0.168-0.504-0.41-0.932-0.724-1.284
		c-0.315-0.352-0.697-0.622-1.148-0.808s-0.959-0.28-1.524-0.28c-0.565,0-1.075,0.093-1.528,0.28s-0.839,0.456-1.156,0.808
		c-0.317,0.352-0.562,0.78-0.732,1.284c-0.171,0.504-0.256,1.074-0.256,1.708c0,0.635,0.085,1.204,0.256,1.708
		c0.17,0.505,0.415,0.931,0.732,1.28c0.317,0.35,0.703,0.617,1.156,0.804s0.963,0.28,1.528,0.28c0.565,0,1.073-0.094,1.524-0.28
		s0.833-0.454,1.148-0.804c0.314-0.35,0.556-0.775,0.724-1.28C22.72,26.308,22.804,25.738,22.804,25.104z"/>
	<path fill="#04897B" d="M28.076,19.332c0.064,0.008,0.121,0.024,0.172,0.048c0.051,0.024,0.1,0.059,0.148,0.104
		s0.101,0.105,0.16,0.18l6.072,7.737c-0.021-0.188-0.036-0.37-0.044-0.549s-0.012-0.346-0.012-0.5V19.32h1.896v11.568h-1.112
		c-0.171,0-0.312-0.026-0.424-0.08c-0.112-0.054-0.222-0.149-0.328-0.288l-6.048-7.704c0.016,0.17,0.028,0.34,0.036,0.508
		c0.008,0.168,0.012,0.321,0.012,0.46v7.104h-1.896V19.32h1.128C27.932,19.32,28.012,19.324,28.076,19.332z"/>
	<path fill="#04897B" d="M46.956,19.32v1.768h-3.48v9.8h-2.152v-9.8h-3.496V19.32H46.956z"/>
	<path fill="#04897B" d="M57.315,30.888h-1.664c-0.187,0-0.34-0.046-0.46-0.14s-0.207-0.209-0.26-0.348l-0.864-2.361h-4.792
		L48.412,30.4c-0.043,0.122-0.127,0.234-0.252,0.336c-0.125,0.101-0.279,0.151-0.46,0.151h-1.672l4.544-11.568h2.2L57.315,30.888z
		 M49.828,26.52h3.688l-1.408-3.848c-0.064-0.171-0.135-0.372-0.212-0.604s-0.153-0.484-0.228-0.756
		c-0.075,0.272-0.148,0.525-0.22,0.76c-0.072,0.235-0.143,0.44-0.212,0.616L49.828,26.52z"/>
	<path fill="#04897B" d="M66.052,28.16c0.117,0,0.219,0.045,0.304,0.136l0.848,0.92c-0.469,0.581-1.047,1.026-1.732,1.336
		c-0.686,0.31-1.508,0.464-2.468,0.464c-0.858,0-1.63-0.146-2.316-0.439c-0.685-0.294-1.271-0.701-1.756-1.225
		c-0.485-0.522-0.857-1.146-1.116-1.872c-0.258-0.726-0.388-1.517-0.388-2.376c0-0.869,0.144-1.665,0.432-2.388
		c0.288-0.723,0.693-1.345,1.216-1.868c0.522-0.522,1.148-0.929,1.876-1.22c0.728-0.291,1.532-0.436,2.412-0.436
		c0.858,0,1.609,0.137,2.252,0.412c0.643,0.275,1.193,0.639,1.652,1.092l-0.72,1c-0.043,0.064-0.098,0.12-0.164,0.168
		c-0.067,0.048-0.159,0.072-0.276,0.072c-0.123,0-0.248-0.048-0.376-0.144c-0.128-0.096-0.291-0.2-0.488-0.312
		c-0.197-0.112-0.447-0.216-0.748-0.312c-0.301-0.096-0.684-0.144-1.148-0.144c-0.544,0-1.044,0.095-1.5,0.284
		c-0.456,0.189-0.848,0.46-1.176,0.812c-0.328,0.352-0.584,0.78-0.768,1.284c-0.184,0.504-0.276,1.071-0.276,1.7
		c0,0.65,0.092,1.229,0.276,1.736c0.184,0.507,0.433,0.934,0.748,1.279c0.314,0.348,0.685,0.613,1.112,0.797
		s0.885,0.275,1.376,0.275c0.293,0,0.559-0.016,0.796-0.048s0.456-0.083,0.656-0.151c0.2-0.07,0.389-0.159,0.568-0.269
		s0.356-0.244,0.532-0.403c0.054-0.049,0.109-0.088,0.168-0.117C65.918,28.174,65.982,28.16,66.052,28.16z"/>
	<path fill="#04897B" d="M76.979,19.32v1.768h-3.48v9.8h-2.152v-9.8h-3.496V19.32H76.979z"/>
	<path fill="#04897B" d="M84.547,21.424c-0.059,0.117-0.127,0.2-0.204,0.248c-0.077,0.048-0.169,0.072-0.275,0.072
		c-0.107,0-0.228-0.041-0.36-0.124c-0.134-0.083-0.291-0.174-0.472-0.276c-0.182-0.101-0.394-0.193-0.637-0.276
		c-0.242-0.083-0.529-0.124-0.859-0.124c-0.299,0-0.559,0.036-0.78,0.108c-0.222,0.072-0.408,0.172-0.56,0.3
		c-0.152,0.128-0.266,0.282-0.341,0.46c-0.074,0.179-0.111,0.375-0.111,0.588c0,0.272,0.076,0.499,0.228,0.68
		c0.152,0.182,0.354,0.336,0.604,0.464c0.25,0.128,0.536,0.243,0.855,0.344c0.32,0.102,0.646,0.209,0.98,0.324
		c0.333,0.115,0.66,0.248,0.979,0.4c0.32,0.152,0.605,0.344,0.856,0.576c0.25,0.232,0.452,0.516,0.604,0.852
		c0.152,0.336,0.229,0.744,0.229,1.225c0,0.523-0.09,1.012-0.269,1.469c-0.179,0.455-0.439,0.853-0.784,1.191
		c-0.344,0.338-0.764,0.605-1.26,0.8s-1.063,0.292-1.704,0.292c-0.367,0-0.73-0.036-1.088-0.107c-0.357-0.072-0.7-0.176-1.027-0.309
		c-0.328-0.133-0.635-0.293-0.921-0.48c-0.285-0.186-0.539-0.395-0.764-0.623l0.624-1.032c0.059-0.075,0.129-0.138,0.212-0.188
		s0.175-0.076,0.276-0.076c0.133,0,0.277,0.055,0.432,0.164c0.155,0.109,0.338,0.23,0.548,0.364
		c0.211,0.134,0.459,0.255,0.744,0.364s0.628,0.164,1.028,0.164c0.613,0,1.088-0.146,1.424-0.436
		c0.336-0.291,0.504-0.709,0.504-1.252c0-0.305-0.076-0.553-0.228-0.744c-0.152-0.192-0.354-0.354-0.604-0.484
		s-0.536-0.241-0.855-0.332c-0.32-0.091-0.646-0.189-0.977-0.296c-0.33-0.106-0.656-0.235-0.976-0.384
		c-0.32-0.149-0.605-0.344-0.856-0.584c-0.251-0.24-0.452-0.54-0.604-0.9c-0.152-0.36-0.229-0.804-0.229-1.332
		c0-0.421,0.084-0.832,0.252-1.232s0.414-0.755,0.736-1.064c0.322-0.31,0.719-0.558,1.188-0.744c0.469-0.187,1.005-0.28,1.607-0.28
		c0.683,0,1.313,0.106,1.888,0.32c0.576,0.213,1.067,0.512,1.473,0.896L84.547,21.424z"/>
	<path fill="#212529" d="M92.242,24.167h0.504c0.203,0,0.371-0.028,0.505-0.084c0.133-0.056,0.248-0.145,0.344-0.268l3.191-4.04
		c0.134-0.171,0.273-0.29,0.421-0.356c0.146-0.067,0.332-0.1,0.556-0.1h1.855l-3.896,4.808c-0.123,0.149-0.24,0.274-0.353,0.376
		c-0.111,0.101-0.231,0.184-0.359,0.248c0.176,0.064,0.334,0.155,0.476,0.272c0.142,0.117,0.279,0.267,0.412,0.448l4.017,5.416
		h-1.904c-0.256,0-0.447-0.036-0.572-0.108s-0.23-0.177-0.315-0.315l-3.272-4.272c-0.106-0.139-0.227-0.238-0.36-0.3
		c-0.133-0.062-0.322-0.092-0.567-0.092h-0.681v5.088h-2.151V19.312h2.151V24.167z"/>
	<path fill="#212529" d="M108.482,19.32v1.712h-5.128v3.208h4.04v1.656h-4.04v3.272h5.128v1.72h-7.296V19.32H108.482z"/>
	<path fill="#212529" d="M117.643,19.32v1.712h-5.128v3.208h4.04v1.656h-4.04v3.272h5.128v1.72h-7.296V19.32H117.643z"/>
	<path fill="#212529" d="M121.73,26.816v4.071h-2.151V19.32h3.768c0.773,0,1.442,0.091,2.008,0.272s1.032,0.435,1.4,0.76
		c0.368,0.326,0.64,0.715,0.816,1.168c0.176,0.454,0.264,0.95,0.264,1.488c0,0.56-0.094,1.073-0.28,1.54s-0.467,0.868-0.84,1.204
		c-0.373,0.336-0.84,0.598-1.4,0.783c-0.56,0.188-1.216,0.281-1.968,0.281H121.73z M121.73,25.136h1.616
		c0.395,0,0.739-0.049,1.032-0.148s0.536-0.24,0.728-0.424c0.192-0.184,0.336-0.408,0.433-0.672
		c0.096-0.264,0.144-0.559,0.144-0.884c0-0.31-0.048-0.589-0.144-0.84c-0.097-0.25-0.24-0.464-0.433-0.64
		c-0.191-0.176-0.435-0.311-0.728-0.404c-0.293-0.093-0.638-0.14-1.032-0.14h-1.616V25.136z"/>
	<path fill="#212529" d="M136.803,19.32v1.712h-5.128v3.208h4.04v1.656h-4.04v3.272h5.128v1.72h-7.296V19.32H136.803z"/>
	<path fill="#212529" d="M140.891,26.367v4.521h-2.151V19.32h3.527c0.79,0,1.466,0.081,2.028,0.244
		c0.563,0.163,1.024,0.391,1.384,0.684c0.36,0.293,0.624,0.644,0.792,1.052c0.168,0.408,0.252,0.857,0.252,1.348
		c0,0.39-0.057,0.758-0.172,1.104c-0.114,0.347-0.279,0.662-0.496,0.944c-0.216,0.283-0.482,0.531-0.8,0.744
		s-0.679,0.385-1.084,0.512c0.272,0.155,0.507,0.377,0.704,0.664l2.896,4.272h-1.937c-0.187,0-0.346-0.037-0.476-0.112
		c-0.131-0.074-0.242-0.182-0.332-0.32l-2.433-3.703c-0.091-0.139-0.19-0.237-0.3-0.297c-0.109-0.059-0.271-0.088-0.484-0.088
		H140.891z M140.891,24.824h1.345c0.405,0,0.758-0.051,1.06-0.152c0.302-0.102,0.55-0.241,0.744-0.42
		c0.194-0.178,0.34-0.391,0.436-0.636c0.097-0.245,0.145-0.515,0.145-0.808c0-0.586-0.193-1.037-0.58-1.352
		c-0.387-0.314-0.978-0.472-1.772-0.472h-1.376V24.824z"/>
</g>
</svg>
